<svg xmlns="http://www.w3.org/2000/svg" version="1.1" width="600px" height="600px" viewBox="0 0 200 200" style="overflow:hidden!important;"><g id="svga-group-wrapper"><g id="svga-group-backs-single"><path id="SvgjsPath7073" d="M0 0h200v200H0V0z" fill="#ecf0f1" stroke-width="none" opacity="1"></path></g><g id="svga-group-humanwrap-move" transform="matrix(1,0,0,1,0,0)"><g id="svga-group-humanwrap"><g id="svga-group-hair-back-move" transform="matrix(1,0,0,1,0,0)"><g id="svga-group-hair-back"></g></g><g id="svga-group-humanbody-back"><path id="SvgjsPath6837" d="M77.6 118.3c0 19.3 3.4 44.1-10 51.9-13.4 7.9-31.9 11.3-37.8 22s-4.4 25.3-4.4 25.3h149.3s.7-18.9-5.1-26.4c-8.1-10.4-27.8-15.5-37.7-20.9s-13.4-25.1-13.4-52.4l-40.9.5z" fill="#f8f7f3" stroke-width="none" opacity="1"></path></g><g id="svga-group-chinshadow-single"></g><g id="svga-group-humanbody-front"><path id="SvgjsPath6838" d="M175.8 218.7H24.4l-.1-1c-.1-.6-1.5-15.1 4.5-26 4.1-7.4 13.5-11.3 23.5-15.5 5-2.1 10.2-4.3 14.8-6.9 10.6-6.2 10.1-23.9 9.6-41-.1-3.5-.2-6.8-.2-10v-1.1l43.2-.4v1.1c0 29.9 4.2 46.7 12.8 51.4 2.9 1.6 6.7 3.2 10.8 4.9 10 4.1 21.3 8.8 27.2 16.3 6.1 7.7 5.4 26.4 5.4 27.1l-.1 1.1zm-149.3-2.2h147.1c0-4.1-.2-18.5-4.9-24.6-5.5-7-16.6-11.6-26.3-15.6-4.1-1.7-8-3.3-11-5-5.1-2.8-8.7-8.9-10.9-18.7-2-8.4-2.9-19.4-3-33.5l-38.6.4c0 2.8.1 5.7.2 8.8.5 17.8 1 36.1-10.7 43-4.7 2.7-9.9 4.9-15 7.1-9.6 4-18.7 7.8-22.4 14.5-5 8.6-4.7 20.1-4.5 23.6z" fill="#000000" stroke-width="none" opacity="1"></path><path id="SvgjsPath6839" d="M93.9 153.8c-.5 1.8-.4 3.4.5 5.2.8 1.6 2.1 2.7 3.9 2.9.4 0 .7-.5.5-.8-1.6-2.2-3.5-4.2-3.7-7.1 0-.7-1-.9-1.2-.2z" fill="#000000" stroke-width="none" opacity="1"></path><path id="SvgjsPath6840" d="M112.5 187.5c8.8.5 18.1-.7 26.6-2.9.7-.2.6-1.4-.2-1.3-8.8 1.1-17.7 2-26.5 3.3-.5.1-.3.9.1.9z" fill="#000000" stroke-width="none" opacity="1"></path><path id="SvgjsPath6841" d="M63.1 182.5c3.8.9 7.6 1.9 11.5 2.8 3.6.8 7.4 2 11.1 2.1.7 0 .8-.9.2-1.2-3.5-1.4-7.5-1.7-11.2-2.5-3.8-.7-7.5-1.3-11.3-2-.5 0-.7.7-.3.8z" fill="#000000" stroke-width="none" opacity="1"></path></g><g id="svga-group-clothes-single"><path id="SvgjsPath7268" d="M75.1 157.9s-1.2.2-3.7 3.2-4.6 5.4-4.6 5.4v2.2s-6.8 4.1-12.2 5.4-23.2 10.7-23.2 10.7-6.1 8.5-7.1 15.1-.7 18.3-.7 18.3h153s-.5-14.6-1.7-19.5-5.1-12.7-5.1-12.7-16.1-8.8-22.2-11c-6.1-2.2-15.6-5.9-15.6-5.9v-1.9s-2.9-3.4-5.1-5.6c-2.2-2.2-1.7-3.4-3.4-3.9 0 0 0 5.9-1 9.8s-9.8 9-12.7 10c-2.9 1-3.9 0-4.9 2.9-1 2.9-2.9 7.3-2.9 7.3s-4.2-4.9-6.8-6.8-6.1-3.7-10.5-3.2c-4.4.4-8.1-15.7-9.6-19.8z" fill="#f8f7f3" stroke-width="none" opacity="1"></path><path id="SvgjsPath7269" d="M175.9 198.4c-1.2-4.9-5-12.6-5.2-12.9-.1-.2-.2-.3-.4-.4-.7-.4-16.2-8.9-22.3-11-5.1-1.8-12.7-4.7-14.9-5.6v-1.3c0-.2-.1-.5-.2-.6-.1-.1-3-3.5-5.2-5.7-.9-.9-1.3-1.6-1.6-2.2-.5-.8-.9-1.6-2.2-2-.3-.1-.6 0-.9.2s-.4.5-.4.8c0 .1 0 5.8-.9 9.5-.7 2.8-6.6 6.8-10.3 8.6-.1 0-.2.1-.2.1-.6.3-1.1.5-1.5.6-.8.3-1.4.4-2 .5-1.7.3-2.7.6-3.5 3.1-.6 1.8-1.6 4.3-2.3 5.8-1.4-1.6-4-4.4-6-5.8-2.4-1.7-6.1-3.9-11.2-3.4-2.8.3-6.1-11.2-7.4-15.6-.4-1.4-.8-2.7-1.1-3.5-.2-.5-.7-.8-1.1-.6-.4.1-1.8.5-4.2 3.5-2.4 2.9-4.6 5.3-4.6 5.3-.2.2-.3.4-.3.7v1.6c-1.6.9-7.1 4-11.4 5-5.4 1.2-22.7 10.4-23.4 10.8l-.3.3c-.2.4-6.2 8.8-7.2 15.6-1 6.6-.8 18-.7 18.5 0 .5.5 1 1 1h153c.3 0 .5-.1.7-.3.2-.2.3-.5.3-.7-.4-.8-.9-15-2.1-19.9zm-.4 16.4c-.6.8-1.2 1.5-1.8 2.3h-2.2c1.4-1.4 2.7-2.8 4-4.2-.1.7 0 1.3 0 1.9zm-6.5-28.1c.7 1.4 3.9 8 4.9 12.2.7 2.8 1.1 8.9 1.4 13.5-1.6 1.6-3.2 3.1-4.8 4.8h-3.4c2.1-1.9 4-4.2 5.9-6.3.2-.2-.1-.5-.3-.3-2.1 2.2-4.6 4.2-6.6 6.6h-2.6c2.3-2.6 4.3-5.2 7-7.4.2-.2-.1-.4-.3-.3-2.6 2.2-5.4 4.8-7.3 7.7h-3.3l.1-.1c.1-.1 0-.2-.1-.2 1.5-.9 3.1-3.1 4.4-4.6 1.6-1.8 3.1-3.5 4.7-5.3.1-.2-.1-.4-.2-.2-3.1 3.4-6.2 6.7-9.2 10.1-.1-.7-.1-1.7-.2-2.9 3.2-3.5 6.2-7.2 9.3-10.8.1-.2-.1-.4-.2-.2-3 3.4-6.1 6.8-9.1 10.4-.1-1.2-.1-2.4-.2-3.8 2.2-2.9 4.5-5.6 7-8.2.1-.1-.1-.3-.2-.2-2.5 2.4-4.8 4.9-6.9 7.6v-4.6c2.1-2.7 4.1-5.3 6.5-7.8.1-.1-.1-.3-.2-.2-2.2 2.1-4.5 4.4-6.3 7 0-.9.1-1.9.2-2.7 1.5-1.9 3-3.7 4.7-5.4.1-.1-.1-.3-.2-.2-1.5 1.4-3.1 3-4.4 4.6.2-1.1.4-2.1.7-3.1.6-.8 1.1-1.5 1.6-2.3.1-.1-.1-.3-.2-.2-.4.4-.7.9-1.1 1.4 1.3-4.4 3.4-8.4 5.3-10.6 1.8 1 3.1 1.7 3.6 2zm-45.6-19.1c.6-2.4.8-5.6.9-7.7.3.6.8 1.4 1.8 2.3 1.8 1.8 4.1 4.4 4.8 5.3v1.6c-.2 1.6.5 6 1.4 9.4.3 1 .8 2.6 1.5 4.4.9 2.6 2.5 7.2 2.6 8.9-1.1-.4-1.9-1-3.8-2.5-1.1-.9-2.7-2.1-4.9-3.7-3.9-2.8-5.9-4.8-7.6-6.3-1-.9-1.8-1.7-2.7-2.4-.7-.6-1.4-.9-2.1-1.1 3.6-2.3 7.4-5.4 8.1-8.2zm-8 14.6c0-1.5-.5-3.2-.7-4.7.4.2.9.4 1.4.8.1 1.1 0 2.3.2 3.4-.3.2-.6.4-.9.5zm1.1-3.6c.3.2.5.4.8.7v.1c.1.4.1.9.2 1.3 0 .1.2.1.2 0 0-.4 0-.7-.1-1.1l.9.9c-.6.4-1.3.8-1.9 1.1.2-1 0-2-.1-3zm-2.1-1.2c.2 1.6.2 3.4.6 5-.4.2-.8.4-1.2.5 0-1.9-.3-3.8-.5-5.7.3.1.6.1 1.1.2zm-4.3.9c.5-.1 1.1-.4 1.8-.8.2-.1.5-.2 1-.3.2 1.9.2 3.9.6 5.8-.3.1-.7.2-1 .3-.2-1.8-.8-3.6-1.2-5.3 0-.2-.3-.1-.3.1.3 1.7.5 3.7 1.1 5.4-.6.2-1.3.4-1.9.6-.2-.7-.4-1.4-.5-2.1 0-.1.1-.2.1-.4 0-.4-.2-.7-.4-1-.2-.6-.3-1.3-.4-2 .2 0 .7-.1 1.1-.3zm-2.4 6.3c-.2-.6-.4-1.3-.6-1.9.3.3.7.5 1.1.5.4 0 .8-.2 1.1-.5.2.5.3 1.1.5 1.6-.6 0-1.4.2-2.1.3zm.1-5.7c.2 0 .5-.1.8-.1.1.5.1 1 .2 1.5-.2-.1-.4-.1-.6-.1-.7 0-1.2.4-1.4 1.1-.1-.6-.2-1.2-.3-1.9.3-.3.7-.4 1.3-.5zm-1.6.9c.1 1.7.4 3.3 1.1 4.8-.5.1-1.1.1-1.6.2-.1-.7-.3-1.4-.6-2.1.3-.7.5-1.4.8-2.1.1-.3.2-.6.3-.8zm-.9 5c-.3 0-.7 0-1.1.1l.6-1.5c.2.5.3 1 .5 1.4zm-10.5-3c.1 1.2.1 2.6.5 3.8.1.2.3.1.3 0 .1-1-.1-2.2-.3-3.3.2.2.4.3.6.5.1 1 .2 2.1.5 3 0 .1.2.1.2 0 .1-.8-.1-1.7-.2-2.6.9.9 1.9 1.8 2.7 2.7-1.6.1-3.2 0-4.8-.1 0-1.6-.4-3.2-.7-4.8.3.2.6.4 1 .6 0 .1.1.2.2.2zm-1.7 3.9c-.1-.8-.4-1.6-.6-2.4-.2-1-.4-2.1-.5-3.1 0-.2-.3-.2-.3 0 .1 1.8.2 3.9 1.1 5.4-.7-.1-1.3-.2-2-.3-.5-2.1-.9-4.1-.9-6.2 1.1.4 2.1.9 3.2 1.5v.1c.2 1.6.3 3.4.7 4.9-.1.1-.4.1-.7.1zm-4.2-.7c-.4-2.1-.9-4.2-1.2-6.4.7.1 1.3.2 2 .4 0 2.1.2 4.3.9 6.3-.6 0-1.2-.2-1.7-.3zm-1.7-6.4c.1 2.1.4 4.3 1.2 6.3-.5-.1-1-.2-1.5-.4-.4-2-.9-4-1.3-6 .6.1 1.1.1 1.6.1zm-2.1 0h.2c.2 2 .5 4 1.2 5.8-.5-.1-.9-.2-1.4-.4-.2-.8-.5-1.5-.7-2.3-.2-.7-.3-1.4-.4-2.2.4-.3.8-.7 1.1-.9zm-1.5 1.3c.2 1.4.4 2.8.9 4-.5-.1-.9-.3-1.4-.5-.3-.7-.7-1.5-1.1-2.2.6-.4 1.1-.9 1.6-1.3zm-1.9 1.7c.2.5.4 1.1.7 1.6-.6-.2-1.2-.4-1.8-.7.4-.3.7-.6 1.1-.9zm-15.1.8c0-4.3 1.2-13.5 1.2-13.6V166.9c.7-.7 2.5-2.8 4.4-5.1 1-1.2 1.8-1.9 2.3-2.3.2.6.4 1.4.7 2.2 2.2 7.5 4.5 14.4 7.4 16.4-2.2 2-6.7 5.9-9 8.2-2.5 2.5-6.8 5.2-8.9 6.3.1-.8.4-2.1.7-3.1.6-2.4 1.2-5.1 1.2-7.1zM36 186.9c-.9-.7-1.8-1.3-2.8-2 .5-.2 1.1-.6 1.8-.9l-.2.2c.2.3.7 1.3 1.2 2.7zm-6.8 3.3c3.1 2.1 6.2 4.4 9.5 6.2h.1c.4 1.4.7 2.8 1.1 4.3-3.8-2.9-8-5.4-11.8-8.4.4-.7.8-1.4 1.1-2.1zm1.6-2.7c2.2 1.9 4.5 3.9 7 5.3.3 1 .6 2.1.9 3.2-2.9-2.2-6.1-4.2-9.3-6.2.6-.9 1-1.7 1.4-2.3zm.3-.4c.5-.8.9-1.3 1-1.6.1-.1.3-.2.6-.3 1.2.9 2.4 1.9 3.6 2.7.4 1.1.8 2.4 1.2 3.9-2-1.7-4.3-3.1-6.4-4.7zm-6.5 26.4c2 1.3 3.9 2.7 6.1 3.6.1 0 .2-.1.1-.2-1.8-1.6-4-2.7-6.1-3.9 0-1 0-2.1.1-3.3 3.3 3 7.1 5.8 11.2 7.4.2.1.3-.2.1-.3-3.9-2.4-7.7-4.6-11.3-7.6 0-1.1.1-2.1.1-3.2 4.9 4.1 10 8 15.5 11.1H24.6v-3.6zm16.5 3.6c-5.4-3.9-10.9-7.5-16.2-11.5.1-1.5.2-3 .4-4.3 5.1 3.6 10.2 7.4 15.6 10.4.2.1.4-.2.2-.3-5-3.8-10.5-7.1-15.8-10.5 0-.3.1-.6.1-.9.2-1.1.5-2.2.9-3.3 4.6 3 9.3 6.3 14.2 8.9.2.1.3-.2.2-.3-4.5-3.3-9.4-6.1-14.1-9h-.1c.4-1.2 1-2.4 1.5-3.6 3.7 3.2 7.8 6.5 12.1 8.6.1.3.2.6.2.9 1.5 6.6 1.7 12.9 1.7 14.9h-.9zm2.8 0c0-2-.1-8.5-1.7-15.4-1.7-7.4-4.3-16.3-5.7-18.6 5.6-2.9 14.8-7.5 18.4-8.2 3.8-.9 8.3-3.1 10.7-4.5-.4 3-1 8.7-1 11.9 0 1.8-.6 4.4-1.1 6.6-.8 3.4-1.1 4.8-.3 5.6.2.2.5.3.9.3.2 0 .3 0 .5-.1 2-.7 7.4-4 10.5-7.1 1.3-1.3 3.3-3.1 5.2-4.8.8.4 1.7.8 2.5 1.1.1.1.1.1.1.2.1.1.3.1.3-.1.5.2 1.1.4 1.6.6.1.1.1.1.2 0 .6.2 1.1.3 1.7.5v.1c.1.1.2.1.2 0 .6.1 1.2.3 1.8.4h.1c3.5.7 7.1 1 10.7.7.6.6 1.1 1.2 1.3 1.5-.1.4-.6 1.3-1.8 2.5-2.4 2.2-3.2 3.6-3 6.9.2 2.4 1.1 15.8 1.4 19.8l-53.5.1zm54.2-19.9c-.2-2.5.2-3.4 2.3-5.3 2.1-1.9 2.5-3.4 2.6-4 .2-.4.6-1.4 1.1-2.6 2.1 0 4.1-.2 6-.6 0 0 0 .1.1.1.1.1.3 0 .2-.1v-.1c.2 0 .3-.1.5-.1-1.1 5-5.6 7.9-5.7 13.4-.2 6.2 1.2 13 2.2 19.2h-7.8c-.4-3.8-1.4-17.5-1.5-19.9zm9.7 19.9c-.6-6.1-2-12.3-2.1-18.4-.1-6 4.8-8.9 5.6-14.4.3-.1.7-.2 1-.3.1.1.2.1.2-.1.9-.3 1.7-.6 2.6-1v.1c0 .1.2.1.2 0v-.2c1.2-.6 2.4-1.3 3.6-2.1 1.6 1.5 3.7 3.6 7.6 6.4 2.2 1.6 3.7 2.8 4.8 3.7 2.2 1.8 3.2 2.6 5.1 3h.4c.4 0 .8-.2 1.1-.5 1-1.1.3-3.8-2.3-11.2-.6-1.7-1.2-3.3-1.4-4.3-.7-2.8-1.2-5.6-1.3-7.4 2.9 1.1 9.6 3.6 14.3 5.3 3.7 1.3 11.2 5.2 16.4 7.9-2.4 3.1-5.4 9.1-6.5 15.5-.5 3.2-.5 8.1-.3 12.1-.1.2-.3.4-.4.6s.2.4.3.2c0-.1.1-.1.1-.2.1 2.1.2 3.8.3 5l-49.3.3zm66.5 0c.4-.6.8-1.1 1.2-1.7 0 .7.1 1.2.1 1.7h-1.3zm-73.2-22.8c.8 0 1.5.7 1.5 1.5s-.7 1.5-1.5 1.5-1.5-.7-1.5-1.5.7-1.5 1.5-1.5zm.6 15.4c.8 0 1.5.7 1.5 1.5s-.7 1.5-1.5 1.5-1.5-.7-1.5-1.5.6-1.5 1.5-1.5z" fill="#000000" stroke-width="none" opacity="1"></path></g><g id="svga-group-head" transform="matrix(1,0,0,1,0,0)"><g id="svga-group-ears-left-move" transform="matrix(1,0,0,1,0,0)"><g id="svga-group-ears-left"><path id="SvgjsPath6856" d="M60.8 80.5c-.2-.3-3.3-4.3-5.9-6.7s-3.4-2.4-4.6-.9c-1.3 1.5-2.9 9.1-2.5 12.4.4 3.4 3.6 8.7 5.2 11.7 1.7 3 3.3 6.7 5.1 6.3 1.9-.4 4.4-4.6 5.7-7.7 1.2-3.1.6-10.9-3-15.1z" fill="#f8f7f3" stroke-width="none" opacity="1"></path><path id="SvgjsPath6857" d="M52.9 98.9c-.3-.5-.5-1-.8-1.4l-.6-1c-1.8-3.1-4.4-7.8-4.8-11-.4-3.5 1.2-11.4 2.7-13.2.6-.7 1.2-1.3 2.2-1.4 1.2-.1 2.3.7 3.9 2.2 1.6 1.4 3.5 3.6 5.8 6.5l.2.3c3.9 4.6 4.5 12.8 3.2 16.1-1.1 3-3.9 7.8-6.4 8.3h-.5c-2 .1-3.4-2.6-4.9-5.4zm7.2-17.8s-.1-.1-.2-.3c-2.2-2.8-4.1-5-5.6-6.3-1.2-1.1-2.1-1.7-2.4-1.7-.2 0-.4.2-.8.7-1 1.2-2.6 8.4-2.3 11.7.3 2.8 2.8 7.3 4.5 10.3l.6 1c.3.5.5 1 .8 1.4.9 1.7 2.5 4.6 3.3 4.4 1.2-.2 3.6-3.7 4.9-7.1 1.1-2.8.4-10.2-2.8-14.1z" fill="#000000" stroke-width="none" opacity="1"></path><path id="SvgjsPath6858" d="M50 87c-.3-2.3-.5-7.8.8-9.6 2.2-2.9 6 6.4 6.9 9.3 0 .1.1.2.1.3.2.3-.1.7-.4.6-.4-.2-.9-.6-1.3-.8-1.1-.5-1.6.5-1.3 1.8.4 1.8 1.4 2.9 2.2 4.3.1.2 0 .4-.2.3-1.6-.9-3.5-4.5-3.1-6.6.3-2 1.9-1.8 3.1-.8-.7-1.7-1.5-3.3-2.5-4.8-.6-.9-1.2-2-2.2-2.2-1.2-.2-1 .3-1.2 1.8-.8 4.8-.3 10.4 2.5 14.5.1.1 0 .2-.1.1-1.7-2.3-2.9-4.9-3.3-8.2z" fill="#000000" stroke-width="none" opacity="1"></path></g></g><g id="svga-group-ears-right-move" transform="matrix(1,0,0,1,0,0)"><g id="svga-group-ears-right"><path id="SvgjsPath6859" d="M139.2 80.5c.2-.3 3.3-4.3 5.9-6.7 2.6-2.4 3.4-2.4 4.6-.9s2.9 9.1 2.5 12.4c-.4 3.4-3.6 8.7-5.2 11.7-1.7 3-3.3 6.7-5.1 6.3s-4.4-4.6-5.7-7.7c-1.2-3.1-.6-10.9 3-15.1z" fill="#f8f7f3" stroke-width="none" opacity="1"></path><path id="SvgjsPath6860" d="M142.1 104.4h-.5c-2.5-.5-5.2-5.4-6.4-8.3-1.3-3.4-.7-11.5 3.2-16.1l.2-.3c2.3-2.9 4.2-5.1 5.8-6.5 1.6-1.4 2.7-2.2 3.9-2.2 1 .1 1.6.7 2.2 1.4 1.5 1.8 3.1 9.7 2.7 13.2-.4 3.2-3 7.9-4.8 11l-.6 1c-.3.5-.5.9-.8 1.4-1.4 2.7-2.8 5.4-4.9 5.4zm-2.2-23.3c-3.2 3.9-3.9 11.2-2.8 14.1 1.3 3.4 3.7 6.9 4.9 7.1.8.2 2.4-2.7 3.3-4.4.3-.5.5-1 .8-1.4l.6-1c1.7-3 4.2-7.5 4.5-10.3.4-3.3-1.3-10.5-2.3-11.7-.4-.4-.6-.7-.8-.7-.3 0-1.2.5-2.4 1.7-1.5 1.4-3.3 3.5-5.6 6.3 0 .2-.1.3-.2.3z" fill="#000000" stroke-width="none" opacity="1"></path><path id="SvgjsPath6861" d="M150 87c.3-2.3.5-7.8-.8-9.6-2.2-2.9-6 6.4-6.9 9.3 0 .1-.1.2-.1.3-.2.3.1.7.4.6.4-.2.9-.6 1.3-.8 1.1-.5 1.6.5 1.3 1.8-.4 1.8-1.4 2.9-2.2 4.3-.1.2 0 .4.2.3 1.6-.9 3.5-4.5 3.1-6.6-.3-2-1.9-1.8-3.1-.8.7-1.7 1.5-3.3 2.5-4.8.6-.9 1.2-2 2.2-2.2 1.2-.2 1 .3 1.2 1.8.8 4.8.3 10.4-2.5 14.5-.1.1 0 .2.1.1 1.7-2.3 2.9-4.9 3.3-8.2z" fill="#000000" stroke-width="none" opacity="1"></path></g></g><g id="svga-group-faceshape-wrap"><g id="svga-group-faceshape-single"><path id="SvgjsPath7350" d="M142.4 53.6c-2.3-11.4-15.1-28.8-42.4-28.8S63.6 38.2 59.6 48.1c-2.5 6.2-3.2 15.2-3.4 19.7 0 0 .5 33.6 2.2 41.1 1.8 7.4 11.2 32.6 35.6 33.9 21.8 1.1 35.2-11.4 41.9-27 6.7-15.6 7.8-48 7.8-48 .1-3.2-.2-8.9-1.3-14.2z" fill="#f8f7f3" stroke-width="none" opacity="1"></path><path id="SvgjsPath7351" d="M96.8 144c-.9 0-1.9 0-2.8-.1-10.8-.6-19.9-5.6-27.1-15.1-5.2-6.8-8.4-14.9-9.5-19.7-1.8-7.5-2.2-39.9-2.3-41.3.2-4.8.9-13.8 3.4-20.1 6.6-16.2 20.1-24 41.5-24 12.3 0 23.2 3.6 31.3 10.4 6.3 5.2 10.9 12.5 12.2 19.3 1.1 5.5 1.3 11.4 1.4 14.4 0 1.3-1.2 32.8-7.9 48.4-4.5 10.6-15.7 27.8-40.2 27.8zM57.3 67.9c0 1.2.5 33.7 2.2 40.8 1.1 4.6 4.1 12.3 9.1 18.8 6.8 8.9 15.3 13.7 25.4 14.2 25.1 1.3 36.4-15.9 40.8-26.3 6.5-15 7.7-46.4 7.7-47.5 0-3-.3-8.7-1.4-14-1.3-6.4-5.6-13.1-11.5-18-7.7-6.5-18-9.9-29.9-9.9-20.3 0-33.2 7.4-39.4 22.6-2.1 5.9-2.8 14.6-3 19.3z" fill="#000000" stroke-width="none" opacity="1"></path></g></g><g id="svga-group-mouth-single-move" transform="matrix(1,0,0,1,0,0)"><g id="svga-group-mouth-single"><path id="SvgjsPath7013" d="M114.35 121.31c-.22.11-.44.19-.66.28-3.57-1.77-7.08-3.68-10.51-5.71-.04-.14-.18-.26-.34-.17-1.1.6-2.21 1.19-3.31 1.79-.02-.01-.02-.03-.04-.04l-2.43-.99c.06-.18-.13-.41-.35-.29a43.686 43.686 0 0 0-7.65 5.34c-.83-.16-1.65-.38-2.46-.67-.59-.21-.85.73-.26.94 1.15.41 2.32.7 3.5.86 2.82 2.94 6.19 6.18 10.56 6.03 4.15-.15 7.24-3.51 10.51-5.65 1.31 0 2.62-.23 3.94-.88.56-.27.06-1.12-.5-.84zM96.6 116.8c.92.38 1.84.75 2.76 1.13.06.03.11.01.16-.01.07.04.14.06.23.01 1.04-.56 2.07-1.12 3.11-1.68 3.32 1.97 6.72 3.82 10.18 5.54-4.09 1.13-8.32-1.32-12.49-1.26-1.98.03-3.86.66-5.79 1.02-1.71.32-3.4.33-5.07.07 2.13-1.83 4.44-3.44 6.91-4.82zm-6 5.94c.96.09 1.93.09 2.9-.01 2.62-.27 5.1-1.32 7.77-1.19 3 .14 5.9 1.28 8.8 1.47-2.76 1.93-5.4 4.57-8.82 5.09-4.36.66-7.81-2.44-10.65-5.36z" fill="#000000" stroke-width="none" opacity="1"></path></g></g><g id="svga-group-eyes-left-move" transform="matrix(1,0,0,1,0,0)"><g id="svga-group-eyes-left"><g id="svga-group-eyesback-left"></g><g id="svga-group-eyesiriswrapper-left"><g id="svga-group-eyesiriscontrol-left" transform="matrix(1,0,0,1,0,0)"><g id="svga-group-eyesiris-left"><path id="SvgjsPath6930" d="M83.6 85.1c-1.1-2.1-3.5-2.9-5.7-2.2-2.4.8-4.2 3.3-3.3 5.9.5 1.4 1.6 2.6 3.1 2.9.5.1 1 .1 1.6.1.6.1 1.2 0 1.8-.2 2.6-.9 3.8-4 2.5-6.5z" fill="#f8f7f3" stroke-width="none" opacity="1"></path><path id="SvgjsPath6931" d="M81.8 86.2c0-.1 0-.1-.1-.2-.6-1.2-2.2-1.7-3.4-1.1.3.2.5.6.6.8.2.4.6 1.1.1 1.3-.4.2-1.1 0-1.4-.2-.2-.1-.4-.3-.5-.5 0 .1-.1.1-.1.2-.1.2-.1.5-.1.7-.2.7 0 1.5.6 2.1.3.2.6.4.9.4.6.3 1.3.4 2 .1-.1-.1-.2-.3-.2-.4 0-.3.2-.6.5-.7.3-.1.6 0 .8.2.3-.3.5-.8.6-1.2.2-.5 0-1.1-.3-1.5zM79.6 92h-.4c-.5 0-1.1 0-1.6-.1-1.4-.3-2.7-1.5-3.2-3-.9-2.7 1-5.2 3.4-6.1 2.3-.8 4.8.1 5.9 2.2.6 1.2.7 2.7.2 4-.5 1.3-1.6 2.3-2.9 2.8-.4.1-.9.2-1.4.2zm-.4-.3c.6.1 1.2 0 1.8-.2 1.2-.4 2.2-1.4 2.7-2.6.5-1.2.4-2.6-.2-3.7-1-1.9-3.4-2.8-5.5-2.1-2.3.8-4.1 3.2-3.2 5.7.5 1.4 1.7 2.6 3 2.8.4.1.9.1 1.4.1z" fill="#000000" stroke-width="none" opacity="1"></path></g></g></g><g id="svga-group-eyesfront-left"><path id="SvgjsPath6900" d="M79 72.1c-8.2 0-14.8 6.6-14.8 14.8s6.6 14.8 14.8 14.8 14.8-6.6 14.8-14.8c0-8.1-6.6-14.8-14.8-14.8zm1.6 21.8c-5.5 1.3-10.3.4-12.2-.7-1.8-1.2-2.5-5.2-2.5-5.2 4.5-2.9 12.2-5.3 16.7-5.7s5.6 2.1 6.2 3.2c.7 1.1 1.1 6.3 1.1 6.4-.1 0-3.8.7-9.3 2z" fill="#f8f7f3" stroke-width="none" opacity="1"></path><path id="SvgjsPath6901" d="M89.2 85.1c-1.5-2.9-2.3-3.4-5.2-3.6-.9 0-9.5-.2-20 7-.3.2-.3.6-.2.8.2.3.6.3.8.2l.9-.6c.2 1.1 1.2 5.6 6.8 6.2.2 0 .4 0 .5.1 5.1.4 13-1.7 15.7-2.4.4-.1.7-.2.8-.2 0 .2 0 .3.1.4-.4.3-.7.6-1 .9-.2.2 0 .4.3.3.6-.2 1.1-.7 1.6-1.1l.1-.1c.1-.1.1-.1.1-.2.2-.3.2-4.8-1.3-7.7zm.1 6.4c-.1 0-.2 0-1.1.2-2.7.7-10.9 2.9-15.7 2.3-5.3-.6-5.8-5.2-5.8-5.4 0-.1-.1-.2-.2-.3 9.3-5.7 16.5-5.6 17.4-5.6 2.4.1 2.8.3 4.2 2.9 1 1.9 1.2 4.4 1.2 5.9.1 0 0 0 0 0zm-16.2 5.1c-2.1-.7-4-1.2-5.9-2.3-.2-.1-.5.2-.3.4 1.7 1.3 3.9 2.4 6.1 2.3.3 0 .3-.3.1-.4z" fill="#000000" stroke-width="none" opacity="1"></path></g></g></g><g id="svga-group-eyes-right-move" transform="matrix(1,0,0,1,0,0)"><g id="svga-group-eyes-right"><g id="svga-group-eyesback-right"></g><g id="svga-group-eyesiriswrapper-right"><g id="svga-group-eyesiriscontrol-right" transform="matrix(1,0,0,1,0,0)"><g id="svga-group-eyesiris-right"><path id="SvgjsPath6932" d="M125.6 85.1c-1.1-2.1-3.5-2.9-5.7-2.2-2.4.8-4.2 3.3-3.3 5.9.5 1.4 1.6 2.6 3.1 2.9.5.1 1 .1 1.6.1.6.1 1.2 0 1.8-.2 2.5-.9 3.7-4 2.5-6.5z" fill="#f8f7f3" stroke-width="none" opacity="1"></path><path id="SvgjsPath6933" d="M123.8 86.2c0-.1 0-.1-.1-.2-.6-1.2-2.2-1.7-3.4-1.1.3.2.5.6.6.8.2.4.6 1.1.1 1.3-.4.2-1.1 0-1.4-.2-.2-.1-.4-.3-.5-.5 0 .1-.1.1-.1.2-.1.2-.1.5-.1.7-.2.7 0 1.5.6 2.1.3.2.6.4.9.4.6.3 1.3.4 2 .1-.1-.1-.2-.3-.2-.4 0-.3.2-.6.5-.7.3-.1.6 0 .8.2.3-.3.5-.8.6-1.2.1-.5 0-1.1-.3-1.5zm-2.2 5.8h-.4c-.5 0-1.1 0-1.6-.1-1.4-.3-2.7-1.5-3.2-3-.9-2.7 1-5.2 3.4-6.1 2.3-.8 4.8.1 5.9 2.2.6 1.2.7 2.7.2 4-.5 1.3-1.6 2.3-2.9 2.8-.4.1-.9.2-1.4.2zm-.4-.3c.6.1 1.2 0 1.8-.2 1.2-.4 2.2-1.4 2.7-2.6.5-1.2.4-2.6-.2-3.7-1-1.9-3.4-2.8-5.5-2.1-2.3.8-4.1 3.2-3.2 5.7.5 1.4 1.7 2.6 3 2.8.3.1.8.1 1.4.1z" fill="#000000" stroke-width="none" opacity="1"></path></g></g></g><g id="svga-group-eyesfront-right"><path id="SvgjsPath6902" d="M121 72.1c-8.2 0-14.8 6.6-14.8 14.8s6.6 14.8 14.8 14.8 14.8-6.6 14.8-14.8c0-8.1-6.6-14.8-14.8-14.8zm9.8 21.8c-2 1-6.8 1.5-12.2-.2s-9-2.7-9-2.7c0-.2.8-5.3 1.5-6.3s2-3.5 6.5-2.7c4.4.7 12 3.7 16.2 7 0-.1-1 3.8-3 4.9z" fill="#f8f7f3" stroke-width="none" opacity="1"></path><path id="SvgjsPath6905" d="M135.6 89.6c-9.9-8-18.5-8.5-19.4-8.5-1.1 0-1.8 0-2.5.2-.7-.1-1.5-.2-2.2-.1-.3 0-.4.4-.1.5.3.1.7.2 1.1.2-.6.5-1.1 1.2-1.8 2.3-1.7 2.7-2.1 7.2-1.9 7.8.1.2.3.4.6.4h.2c.3-.1.4-.3.4-.6.1 0 .3.1.7.2 2.6.9 10.3 3.6 15.4 3.6h.5c5.7-.2 7-4.7 7.3-5.7.3.2.6.4.8.6.3.2.6.2.9-.1.3-.2.3-.6 0-.8zm-2.7-.1c0 .2-.8 4.7-6.2 4.9-4.9.2-12.9-2.6-15.5-3.5-.8-.3-.9-.3-1-.3h-.1c.2-1.5.6-4 1.7-5.7 1.6-2.5 2-2.7 4.4-2.6.8 0 8.1.4 16.9 6.9-.1 0-.2.1-.2.3z" fill="#000000" stroke-width="none" opacity="1"></path></g></g></g><g id="svga-group-facehighlight-single"></g><g id="svga-group-eyebrows-left-move" transform="matrix(1,0,0,1,0,0)"><g id="svga-group-eyebrows-left-rotate" transform="matrix(1,0,0,1,0,0)"><g id="svga-group-eyebrows-left"><path id="SvgjsPath6991" d="M70.6 67.28s-7.13 5.85-7.29 6.25c-.16.4 6.09-1.68 8.42-1.76s16.03 5.77 16.99 5.93c.96.16 2.4-4.01 2.4-4.49s-17.96-7.7-20.52-5.93z" fill="#f8f7f3" stroke-width="none" opacity="1"></path><path id="SvgjsPath6992" d="m62.73 73.63.21.26c.29.33.55.27 3.24-.44 1.83-.48 4.34-1.14 5.56-1.19 1.49-.07 8.55 2.73 12.77 4.38 2.54 1 3.78 1.48 4.13 1.54.05.01.09.01.14.01.23 0 .46-.1.69-.29 1.03-.87 2.15-4.11 2.15-4.7 0-.37-.34-.54-.69-.73-1.74-.92-17.79-7.54-20.61-5.61l-.03.03c-7.23 5.93-7.38 6.31-7.44 6.45l-.12.29zm5.62-1.76-1.91-.48c.47-.39.96-.81 1.46-1.23l1.88 1.39c-.45.09-.94.2-1.43.32zm5.11-4.23.13 3.98c-.39-.11-.73-.19-1.04-.25l-1.48-3.77c.41-.14 1.19-.14 2.39.04zm.81 4.17-.14-4.06c.56.11 1.2.24 1.92.42l-1.08 3.86c-.25-.08-.48-.15-.7-.22zm1.32.43 1.09-3.9c.54.14 1.12.31 1.74.49l-2.22 3.61c-.2-.06-.41-.13-.61-.2zm1.26.44 2.24-3.64c.29.09.58.18.89.28l-1.7 3.88c-.5-.19-.97-.36-1.43-.52zm4.36-2.96c.31.1.61.21.92.31l-2.26 3.75c-.33-.12-.65-.24-.97-.36l1.71-3.9c.2.07.39.13.6.2zm-.72 4.3 2.27-3.76c.41.15.82.29 1.22.44l-1.82 3.97c-.56-.22-1.12-.44-1.67-.65zm5.43-2.59c-1.37 2.27-1.97 3.33-2.23 3.83-.31-.12-.61-.24-.91-.36l1.83-3.98c.45.18.89.34 1.31.51zm.32 4.83 1.71-4.02c.59.25 1.11.47 1.54.66l-2.2 3.77c-.32-.12-.67-.26-1.05-.41zm1.68.65 2.17-3.73c.2.1.37.18.48.25-.22.9-1.27 3.52-1.82 3.78-.12-.04-.42-.15-.83-.3zm-3.61-1.41c.37-.69 1.31-2.29 2.24-3.83.27.11.53.21.79.32l-1.72 4.03-.75-.3a9.31 9.31 0 0 1-.56-.22zM71.7 71.27c-.29.01-.64.05-1.02.11l-2.26-1.66c.73-.61 1.45-1.2 2.09-1.73l1.29 3.29c-.02-.01-.07-.01-.1-.01zm-6.88 1.51c.29-.25.63-.55 1-.86l1.17.29c-.36.09-.72.19-1.07.28-.36.09-.75.19-1.1.29z" fill="#000000" stroke-width="none" opacity="1"></path></g></g></g><g id="svga-group-eyebrows-right-move" transform="matrix(1,0,0,1,0,0)"><g id="svga-group-eyebrows-right-rotate" transform="matrix(1,0,0,1,0,0)"><g id="svga-group-eyebrows-right"><path id="SvgjsPath6993" d="M129.4 67.28s7.13 5.85 7.29 6.25-6.09-1.68-8.42-1.76c-2.32-.08-16.03 5.77-16.99 5.93-.96.16-2.4-4.01-2.4-4.49s17.96-7.7 20.52-5.93z" fill="#f8f7f3" stroke-width="none" opacity="1"></path><path id="SvgjsPath6994" d="M137.16 73.34c-.06-.14-.21-.52-7.44-6.45l-.03-.03c-2.81-1.93-18.86 4.69-20.61 5.61-.36.19-.69.36-.69.73 0 .59 1.12 3.83 2.15 4.7.23.19.46.29.69.29.05 0 .09 0 .14-.01.34-.06 1.58-.54 4.13-1.54 4.22-1.66 11.28-4.45 12.77-4.38 1.22.04 3.73.7 5.56 1.19 2.69.71 2.95.77 3.24.44l.21-.26-.12-.29zm-6.94-1.8 1.88-1.39c.5.42 1 .83 1.46 1.23l-1.91.48-1.43-.32zm-1.3-3.94-1.48 3.77c-.3.06-.65.14-1.04.25l.13-3.98c1.21-.18 1.99-.18 2.39-.04zm-3.88 4.43-1.08-3.86c.72-.18 1.35-.32 1.92-.42l-.14 4.06c-.23.07-.46.14-.7.22zm-1.25.42-2.22-3.61c.62-.19 1.2-.35 1.74-.49l1.09 3.9c-.19.06-.4.13-.61.2zm-2.07.74-1.7-3.88c.31-.1.6-.19.89-.28l2.24 3.64c-.46.17-.93.34-1.43.52zm-2.33-3.67 1.71 3.9c-.32.12-.64.24-.97.36l-2.26-3.75c.3-.11.61-.21.92-.31.21-.07.4-.13.6-.2zm-1.55 5.15-1.82-3.97c.4-.15.8-.29 1.22-.44l2.27 3.76c-.55.21-1.11.43-1.67.65zm-2.45-3.74 1.83 3.98c-.3.12-.6.24-.91.36-.26-.5-.86-1.56-2.23-3.83.42-.18.86-.34 1.31-.51zm-2.69 5.74-2.2-3.77c.43-.19.94-.41 1.54-.66l1.71 4.02c-.37.15-.72.29-1.05.41zm-1.46.53c-.55-.26-1.6-2.87-1.82-3.78.12-.07.28-.15.48-.25l2.17 3.73c-.4.16-.7.27-.83.3zm3.89-1.48c-.25.1-.51.2-.75.3l-1.72-4.03c.25-.1.51-.21.79-.32.93 1.54 1.88 3.14 2.24 3.83-.18.08-.37.15-.56.22zm13.06-4.45 1.29-3.29c.65.53 1.37 1.13 2.09 1.73l-2.26 1.66c-.38-.06-.73-.1-1.02-.11-.02.01-.07.01-.1.01zm5.89 1.22c-.34-.09-.7-.18-1.07-.28l1.17-.29 1 .86c-.35-.1-.74-.2-1.1-.29z" fill="#000000" stroke-width="none" opacity="1"></path></g></g></g><g id="svga-group-beardwrap"><g id="svga-group-beard-single-move" transform="matrix(1,0,0,1,0,2)"><g id="svga-group-beard-single" transform="matrix(0.8999997000000001,0,0,0.8999997000000001,10.063595254171744,12.283735123799886)"><path id="SvgjsPath7088" d="M142.4 84c-2 .3-3 6.8-5.2 11.5s-7.8 17.1-10.7 18.3c-3 1.2-3-.9-5.8-3.3s-12.8-4.9-21.9-.8c0 0-10.3-2.4-17.2-2-6.9.5-7.8 3.2-9.7 4.1s-5.9-3.7-8.3-8.7-4.1-13.3-5.6-15c-1.6-1.7-5.1 9.4-6.8 14.3-1.7 4.9-1 12.3 5.5 23.1 6.6 10.8 21 27 27.2 32.4 6.2 5.5 21.5 3.5 26.7 2.6 5.8-1 26.2-25.8 31.2-32.8s9.4-18.8 9.4-23.8-6.8-20.2-8.8-19.9zM114 133.7c-3.6 2.7-8.7 4-10.8 2.5-2.1-1.4-1-5.1-1-5.1h-6.5s1 3-2 4.8c-2.9 1.8-9.8-1.8-13.1-6.7-3.3-4.9-3.1-12.6-3.1-12.6 10.1 4.4 21.4.1 21.4.1 9.6 3.7 21 .2 21 .2-.2 4.9-2.3 14.1-5.9 16.8z" fill="#f8f7f3" stroke-width="none" opacity="1"></path><path id="SvgjsPath7089" d="M151.7 103.9c0-4.9-5.7-17.8-8.3-20-.4-.3-.8-.5-1.1-.4-1.6.2-2.4 2.8-3.6 6.3-.6 1.8-1.2 3.8-2 5.5l-.4.8c-2 4.4-7.5 16.2-10.1 17.2-1.7.7-2 .2-3.2-1.1-.5-.6-1.1-1.4-2-2.1-2.9-2.5-13.1-5-22.3-.9-1.5-.3-10.7-2.4-17.2-1.9-5.3.3-7.2 2-8.6 3.2-.5.4-.9.7-1.3.9-.2.1-.4.1-.7 0-1.9-.7-4.9-4.4-6.8-8.4-1-2.3-2-5.3-2.9-7.9-1.1-3.5-2-6.3-3-7.3-.3-.3-.6-.4-1-.3-1.5.3-3.2 4.6-6.1 12.8-.2.7-.5 1.4-.7 2-2.1 6-.2 13.9 5.6 23.5 6.5 10.7 20.8 26.9 27.3 32.6 1.2 1 2.6 1.8 4.2 2.3.1.1.2.2.3.4.1.2.4.1.4-.1 1.2.4 2.6.7 4 .9.1.2.3.1.4 0 1.8.2 3.7.3 5.6.3 2.1 0 4.2-.1 6-.3.2.1.4.1.5 0 .8-.1 1.5-.1 2.1-.2.1.1.4.1.5-.1.9-.1 1.6-.2 2.3-.3.1.1.3.1.4-.1.2 0 .3 0 .4-.1 4.4-.8 15.7-13.3 23.8-23 .1.1.2.1.3 0 .2-.2.3-.5.4-.8 3.2-3.9 5.9-7.4 7.2-9.2 5.4-7.4 9.6-19.3 9.6-24.2zm-7-16.4c-.1.1-.2.2-.2.3-.6-1.2-1.3-2.3-2.1-3.3h.1c.4.2 1.2 1.3 2.2 3zm-22.5 25.3-1.8-1.5c-.8-.6-1.6-1.3-2.5-1.8 1.1.4 2 .9 2.6 1.4.6.6 1.2 1.3 1.7 1.9zm12.9 22.6c-.2-.3-.8-.3-.7.1v.8c-.4.4-.8.9-1.1 1.4.1-1 .1-2 .2-2.9.1-.5-.7-.4-.8 0-.1.9-.2 1.7-.4 2.6-.1.5-.2 1.1-.2 1.7-.5.6-.9 1.1-1.4 1.7.1-.6.1-1.1.1-1.6.1-1.2.2-2.4.4-3.6.1-.4-.6-.6-.7-.2-.4 1.9-1.2 4.5-.7 6.4-.4.4-.7.9-1.1 1.3.5-1.5.4-3.6.2-5-.1-.6-.9-.6-.9 0 0 1 0 2-.1 3s-.5 2-.3 2.9c0 .1.1.1.1.2-.7.8-1.4 1.6-2.2 2.4.8-2.4 1.2-4.9 1.2-7.4 0-.3-.5-.4-.5-.1-.6 2.8-1.1 5.7-1.7 8.5-.4.4-.7.8-1.1 1.2.5-2.1 1.1-4.2 1.1-6.3 0-.4-.5-.4-.6-.1-.6 2.2-.8 4.6-1.3 6.8 0 .1 0 .3.1.3-.8.9-1.6 1.7-2.4 2.5.9-1.9 1.5-4 1.7-6.1 0-.3-.4-.4-.5-.1-.7 2.6-1.4 5-2.5 7.5-.5.5-1.1 1-1.6 1.5.7-1.6 1.4-3.3 1.7-5 .1-.2-.3-.4-.4-.2-.8 1.8-1.4 3.7-2.1 5.5-.1.1 0 .2.1.3-1.4 1.3-2.7 2.4-3.8 3.1.9-1.9 1.8-3.8 2.3-5.8.1-.3-.3-.5-.5-.2-1.1 1.9-1.8 4.2-2.6 6.2v.2c-.4.2-.8.4-1.2.5.4-.9.8-1.9 1-2.9.1-.3-.4-.6-.6-.2-.6 1-1 2.2-1.3 3.3-.5.1-1.1.2-1.9.3.5-1.3 1-2.6 1.2-3.9.1-.3-.4-.5-.5-.2-.7 1.3-1.1 2.8-1.5 4.3-.6.1-1.2.1-1.9.2.2-.8.4-1.7.3-2.4 0-.3-.5-.4-.6-.1-.3.8-.4 1.7-.6 2.6-.6.1-1.2.1-1.8.1.3-1.2.6-2.5.5-3.7 0-.4-.6-.4-.7-.1-.5 1.2-.6 2.6-.7 3.9-.4 0-.9 0-1.3.1.2-.6.3-1.2.4-1.7.2-1 .3-2.1.3-3.1 0-.1-.1-.2-.2-.2.4-1.8.1-3.8.1-5.6 0-.5-.8-.5-.8 0-.1 1.8-.4 3.9.2 5.7 0 .1.1.1.2.2l-.6 2.7c-.1.4-.2.8-.2 1.2-.1.3-.1.5-.2.8-.1.1-.1.2-.1.2-1.4 0-2.9 0-4.4-.1-.7-2.2-1.5-4.2-1.8-6.6-.1-.4-.8-.5-.7 0 .2 2.2.5 4.6 1.6 6.5-.5-.1-1.1-.1-1.6-.2-.7-2-1.5-3.9-2.1-5.9-.1-.3-.6-.2-.5.1.4 1.9 1 3.9 1.8 5.7l-1.5-.3c-1.2-1.9-2.4-3.7-3.1-5.9-.2-.5-1-.3-.9.2.5 1.8 1.3 3.8 2.5 5.3-.4-.1-.8-.3-1.2-.4-1.5-2.6-3.1-5.1-4.2-7.9-.1-.3-.6-.2-.5.1.9 2.5 2 5 3.5 7.2-.8-.4-1.6-.9-2.2-1.4v-.2c-.9-1.9-2.2-3.6-3.2-5.5-.1-.2-.6-.1-.5.2.5 1.2 1 2.5 1.7 3.7-1.7-1.7-3.8-3.8-6-6.2.1-.1.1-.2 0-.3-.9-1.9-2-3.5-2.6-5.5-.1-.4-.7-.2-.6.2.2 1 .5 2.1.9 3.1-.5-.6-1.1-1.2-1.6-1.8-.5-1.8-1.3-3.5-1.8-5.2-.1-.4-.8-.2-.7.2.2 1 .5 2.1.9 3.2-2.9-3.4-5.8-7-8.3-10.4.2 0 .4-.1.3-.3-.2-1.3-.6-2.6-.8-3.9-.1-.3-.7-.3-.6.1.1 1.3.3 2.6.9 3.8-1.9-2.6-3.6-5-5-7.3 0-.1-.1-.1-.1-.2.2 0 .3 0 .3-.2.2-1 .1-2.2.2-3.3 0-.5-.7-.5-.8 0-.1.9-.3 2-.1 2.9-.9-1.6-1.8-3.1-2.5-4.6.1 0 .2 0 .2-.2.1-.5-.1-1.1-.1-1.6 0-.3-.6-.3-.5 0v.9c-.5-1-.9-2-1.2-3 .2.2.5 0 .5-.2.1-.7-.2-1.3 0-2 .1-.4-.5-.6-.7-.2-.1.4-.2.9-.2 1.5-.5-1.4-.8-2.8-1.1-4.1.1 0 .1-.1.1-.1.9-3.3 1.4-6.5 2.8-9.6.2-.5-.5-.9-.7-.4-1.1 2.2-2.2 4.8-2.5 7.4-.1-2 .2-3.9.7-5.6.2-.6.4-1.3.7-2 1.2-3.5 4.1-11.8 5.2-12.1.2.2.4.6.6 1-1.9 1.9-3.3 4.4-4 7-.1.3.3.4.5.2 1.2-2.2 2.5-4.3 3.9-6.3.3.8.7 1.8 1.1 2.9-1.1.6-1.9 1.8-2.6 2.8-.8 1.2-1.5 2.4-1.9 3.7-.1.4.4.6.7.3.8-1.1 1.5-2.3 2.2-3.4.6-.9 1.4-1.7 1.9-2.6.2.4.3.9.5 1.4.1.4.3.8.4 1.3-2 1.8-4.1 4.3-4.7 6.9-.1.5.5.7.8.3.8-1.1 1.3-2.3 2-3.4.7-1 1.4-1.9 2.2-2.8.3.8.5 1.6.8 2.4-2.2 1.9-3.7 4.8-4.2 7.6-.1.3.4.6.6.2 1.3-2.4 2-5 4-7 .3.9.7 1.8 1.1 2.6.1.1.1.3.2.4-1.6 1.7-3.4 3.8-4 6.1-.1.4.5.6.7.3.7-.9 1.1-2 1.7-2.9.6-.9 1.3-1.8 2-2.6.6 1.1 1.3 2.2 2 3.2-1.1.8-1.8 2.1-2.5 3.3-.8 1.4-1.6 3-1.8 4.6 0 .2.3.3.5.1 1.5-2.2 2.1-5.6 4.3-7.3.6.8 1.2 1.5 1.8 2.1-2.3 2.5-3.3 6-3.3 9.3 0 .3.4.3.5.1.9-3.1 1.2-6.2 3.4-8.9.7.6 1.3 1 1.9 1.2.3.1.5.1.7.1-.1.1-.2.3-.3.4-.8.9-1.4 1.9-1.9 3.1-.1.3.3.4.4.2.6-.7 1.1-1.5 1.6-2.2.3-.4.7-.9 1-1.3.1-.1.2-.3.4-.5.3-.2.5-.3.8-.6.1 0 .2-.1.2-.2.1 0 .1-.1.2-.1 1.4-1.2 3.1-2.6 7.9-2.9 6.7-.4 16.9 1.9 17 2h.2l.2-.1c6.7-3.1 13.9-2.4 18.2-.9-.2 0-.4.3-.2.5 1.7 1.6 3.8 3.4 5.8 4.6.2.1.4-.1.4-.2.8.7 1.7.9 3.4.3 1-.4 2.1-1.7 3.4-3.7.2.9.2 1.8.4 2.8 0 .2.3.2.3 0 .1-.9-.1-2-.4-2.9 0-.1-.1-.1-.2-.1.5-.8 1-1.6 1.5-2.5.2 1.9.3 3.9 1 5.7.1.2.5.2.5-.1-.1-1.9-.7-3.9-1.1-5.8 0-.1-.2-.2-.3-.1 1.1-1.9 2.2-4.1 3.3-6.4v.1c.3 1.3.4 2.9.9 4.2.1.3.6.3.7-.1.1-1.4-.5-3-1-4.2-.1-.2-.3-.2-.5-.1.7-1.5 1.4-3.1 2.2-4.6l.4-.8c.4-.8.7-1.6 1-2.4.5 1.7.8 3.6 1.7 5.2.1.2.6.1.5-.1-.2-1.9-1.1-3.8-1.7-5.6-.1-.1-.1-.2-.2-.2.3-.9.6-1.8.9-2.6.6-2 1.4-4.2 2.1-5.1 1.4 2.4 2.3 4.8 3.2 7.3.1.3.6.3.6-.1-.1-.9-.2-1.8-.5-2.6 1.4 3.8 2.4 7.6 3.6 11.5.1.4.8.3.7-.1-.2-2.1-.7-4.2-1.3-6.2 1.4 3.5 2.5 7.1 2.5 9.2v.4c-.1-.4-.1-.8-.1-1.3 0-.6-.9-.6-.9 0 0 1.2.1 2.7.7 3.8-.1.8-.3 1.6-.6 2.4v-.2c-.2-1.2-.3-2.4-.5-3.6-.1-.5-.9-.5-.8 0 .1 1.1.2 2.1.4 3.2.1.9.1 1.8.4 2.6-.1.4-.3.8-.4 1.2-.2-1.3-.5-2.6-.7-3.8-.1-.4-.7-.3-.7.1.2 1.8.3 3.7.7 5.5-.3.7-.6 1.4-.9 2.2-.2-1.6-.7-3.3-1-4.8-.1-.5-.9-.3-.8.2.3 2 .5 4.2 1.1 6.1-.9 2.1-1.9 4.1-3 6 .3-1.6.3-3.2.4-4.8 0-.5-.8-.5-.9 0-.1 1.7-.4 3.5-.1 5.2 0 .2.2.2.3.2-.6 1-1.2 2-1.9 2.8-1.7 1.4-3.9 4.3-6.6 7.6zM124.7 117c-3.5-1-6.3-2.3-8.2-5.5-.2-.3-.7 0-.6.3.9 1.8 2.4 3.6 4.3 4.7l-.4.1s-.2 0-.4.1c.2-.2.2-.4-.1-.5-1.5-.7-3.1-1.2-4.5-2.3-1.3-1-2.3-2.4-2.9-3.9-.2-.3-.7-.1-.6.2.8 3.4 4.1 6 7.6 6.6-.9.2-2.6.6-4.6.8-3.5-1.5-6.2-4.2-7-8-.1-.3-.7-.3-.6.1.5 3.6 2.7 6.8 6.1 8.1-.9.1-1.8.1-2.8.2-3.6-1.8-5.2-5.1-6.5-8.9-.1-.3-.6-.2-.6.2.6 3.2 2.1 6.9 4.9 8.7-1.6-.1-3.2-.2-4.8-.5-1.3-1.1-2.1-2.4-2.4-4.1-.1-.4-.7-.3-.7.1-.1 1.3.4 2.6 1.2 3.6-.7-.2-1.4-.4-2.1-.7l-.2-.1-.2.1s-.4.2-1.2.4c.1-.2.2-.3.3-.5.8-1.2 1.7-2.5 2.1-3.9.1-.4-.4-.6-.6-.2-1.1 1.5-1.8 3.7-3.1 5-1.7.4-4.1.9-6.9 1 3.5-1.2 7-3.9 8.4-7.1.1-.2-.2-.3-.3-.2-1.4 1.6-2.5 3.2-4.2 4.5-1.7 1.3-3.6 2.2-5.7 2.9-1.1 0-2.2-.1-3.3-.2 3.1-.3 6-2.1 8.3-4 .2-.2-.1-.6-.3-.4-3.3 2-6.3 4.2-10.4 4-.1 0-.1 0-.2.1-.6-.1-1.3-.3-1.9-.5 1.6-.1 3.1-.8 4.6-1.6 2.3-1.2 4.5-2.6 6.3-4.4.2-.2-.1-.5-.3-.4-3.1 2.1-7.1 5.5-11.1 5.7 2.4-.8 4.6-2.7 6.1-4.6.2-.2-.1-.5-.3-.3-1.5 1.2-3.2 2.7-5 3.6-2.5 1.2-4.8.5-7.4 0-.2-.1-.4.3-.2.4 1.4.6 3 1.2 4.6 1.2v.9c-.2-.1-.4 0-.4.2-.2 1.3-.3 2.9.1 4.2.1.3.6.2.6-.1 0-.3.1-.6.1-.9.4 2.6 1.2 5.9 2.9 8.5 1.3 2 3.2 3.8 5.2 5.1.1 2.3.2 4.6.9 6.8.1.2.5.2.5-.1-.2-2.1-.5-4.2-.6-6.3 3 1.8 6.1 2.4 7.9 1.3 2.2-1.3 2.5-3.4 2.3-4.7h2.2l-.1.1c-.1 2-.3 4.2-.1 6.2.1.4.6.4.6 0 .3-2 0-4.2-.1-6.2 0-.1 0-.1-.1-.1h2.6c0 .1-.1.2-.1.4-.2-.1-.4 0-.4.2.1 2.4-.3 4.7-.2 7.1 0 .3.5.4.6.1.3-1.4.4-2.8.3-4.1.2.5.6 1 1.1 1.4.2.1.5.3.7.4-.1 1.6-.1 3.3.1 4.9 0 .3.5.4.5.1.3-1.6.2-3.2 0-4.8.4.1.9.1 1.4.1h.8c.2 1.7 0 3.4.2 5.1 0 .3.5.4.6.1.4-1.7.1-3.5-.2-5.2 2.5-.3 5.3-1.6 7.4-3.2 1.1-.8 2.1-2.3 3-4.1-.1 2-.2 4 .1 6 0 .3.5.3.5 0 .2-2.4.1-4.8.1-7.2 0-.1 0-.2-.1-.2.4-1 .8-2 1.1-3.1-.1 1.6 0 3.4.4 5 .1.3.5.2.6-.1 0-1.7-.3-3.5-.4-5.2 0-.2-.2-.3-.4-.2.8-2.8 1.3-5.7 1.4-7.9v-.4c1.2.7 2.6 1.1 4 1 .5-.4.6-.9.2-1zm-11 16.2c-3.4 2.6-8.2 3.8-10.1 2.5-1.8-1.2-.8-4.4-.8-4.5l.2-.7h-8.1l.2.7c0 .1.8 2.6-1.7 4.1-2.4 1.5-9-1.5-12.3-6.5-2.5-3.8-2.9-9.3-3-11.4 9.3 3.6 19.2.5 20.8-.1 4 1.5 8.3 1.8 11.9 1.6h.4c3.7-.2 6.7-.9 8.1-1.2-.4 5.4-2.6 13.2-5.6 15.5zM73.9 114c2.8-1.5 5.3-3.3 8.1-4.6.3-.1.1-.6-.2-.5-2.9 1.2-6 2.5-8.3 4.6-.3.3.1.7.4.5zm-19.7-9.2c-.9 2.4-1.8 5.1-1.6 7.7 0 .4.7.6.8.1.6-2.5.9-5 1.7-7.5.2-.7-.7-.9-.9-.3zm1.6 3.5c-.9 3-1.5 6.4-.8 9.5.1.4.7.3.7-.1.2-3.1.3-6.1 1.1-9.1.2-.7-.8-1-1-.3zm2.1 2.9c-.6 2.6-1.2 5.6-.9 8.3 0 .4.7.5.7.1.4-2.7.5-5.5.8-8.3.1-.3-.6-.4-.6-.1zm2.4 2.6c-.9 2.8-1.3 6-.3 8.8.1.3.5.2.5-.1.1-2.9-.2-5.7.5-8.6.2-.4-.5-.6-.7-.1zm1.9 4.4c-.7 2.8-1.2 6.4.2 9.1.2.3.5.1.6-.1 0-1.4-.3-2.7-.3-4.1 0-1.6.2-3.1.5-4.6 0-.7-.9-.9-1-.3zm3.4 3.2c.1-.6-.9-.6-1 0-.3 2.8-.1 5.9 1.6 8.3.2.3.6.1.5-.2-.8-2.7-1.5-5.2-1.1-8.1zm4 6.9c-.7-3.1-1.3-5.9-.7-9.2.1-.6-.9-.9-1-.3-.6 3.2-.6 6.8.9 9.7.3.5.9.2.8-.2zm2.8 1.9c-.2-3.8-.9-7.2-.3-11 .1-.6-.9-.9-1-.2-.6 3.7-.9 7.9.7 11.4.1.2.6.1.6-.2zm1.8-11.2c-.7 4.7-.7 9.5 1.1 14 .1.4.6.2.6-.1-.8-4.6-1.3-8.9-.7-13.6 0-.7-.9-.9-1-.3zm8 21.7c-2.1-5.4-4-10.5-4.9-16.3-.1-.7-1.2-.4-1.1.3.9 5.6 2.4 11.3 5.4 16.2.1.4.7.2.6-.2zm-7.9-6.3c.8 3.2 1.9 6.7 4 9.2.3.3.7-.1.6-.4-1.3-3.1-2.9-5.8-3.7-9.1-.1-.6-1-.3-.9.3zm-3-2c.7 3.1 1.6 6.4 3.3 9.2.2.3.7.1.6-.2-1-3.1-2.2-6-3-9.2-.2-.6-1-.4-.9.2zm-1.6-2.1c-.2-.6-1-.3-.9.2.7 3.1 1.5 6.7 3.3 9.4.2.4.9.1.7-.3-.8-3.1-2.3-6-3.1-9.3zM67 132c.4 2.2 1.2 4.8 2.7 6.5.2.2.7 0 .6-.3-.8-2.2-2-4.1-2.4-6.4-.2-.6-1-.3-.9.2zm-2.5-1.6c.3 1.6.5 3.5 1.3 5 .2.3.7.2.7-.2-.2-1.7-.9-3.3-1.2-5-.2-.4-.9-.2-.8.2zm-4.7-6.4c0-.5-.7-.5-.8 0-.1 1.1-.2 2.7.5 3.7.2.2.5.2.5-.1 0-.6-.2-1.2-.3-1.7.1-.7.1-1.3.1-1.9zm13.3-5.8c.1-.5.4-1 .4-1.6 0-.1-.2-.2-.3-.2-.5.3-.7 1-.8 1.6-.1.5.6.7.7.2zm11.4 23.7c-.2-1.8-.6-3.6-1-5.4-.3-1.1-.3-2.5-1.3-3.2-.3-.2-.7.2-.4.5.8.8.8 2.9 1 3.9.3 1.4.7 2.9 1.2 4.3 0 .3.5.2.5-.1zm-5.1-2.6c.2 3.2.8 6.5 2.6 9.2.2.2.6.1.5-.2-.9-3.1-2-5.9-2.5-9.1-.1-.2-.7-.1-.6.1zm-3.3 4.2c.7 2.6 1.4 5.6 3.1 7.7.2.3.7 0 .6-.3-.7-2.6-2.2-5-3-7.6-.1-.4-.8-.3-.7.2zm-8.5-5.4c.4.9.8 2 1.5 2.8.2.2.4 0 .4-.2-.2-1-.9-2-1.4-2.9-.2-.3-.7 0-.5.3zm15.8 6.2c.2 2.3.6 4.7 1.9 6.7.2.2.6.1.5-.2-.7-2.2-1.5-4.3-1.9-6.5-.1-.3-.5-.2-.5 0zm1.9-.4c.5 3.1 1.3 6.1 2.7 9 .1.2.4.1.4-.1-.9-3-1.8-6-2.4-9 0-.5-.7-.3-.7.1zm4.2-1.8c-.1-1.9-.5-3.7-.8-5.6-.1-.4-.6-.2-.6.1.3 1.8.5 3.7 1 5.4.1.4.4.4.4.1zm-1.9.8c.3 2.8.7 5.8 1.6 8.5.1.3.6.2.5-.1-.4-2.8-1.1-5.6-1.6-8.4 0-.4-.6-.3-.5 0zm8.5 12.2c-.1 1.9 0 3.9.8 5.6.2.4.6.1.6-.2-.3-1.8-.7-3.5-.6-5.4-.1-.5-.8-.5-.8 0zm-4.7-8.2c0 2.1.2 4.4 1.2 6.2.2.3.6.1.6-.2-.3-2-.9-3.9-1-6 0-.5-.8-.5-.8 0zm2.8-.9c.1 2.7.2 5.4 1.2 8 .1.2.5.2.4-.1-.2-2.6-.8-5.2-.9-7.9 0-.4-.7-.4-.7 0zm-2.2-1.9c-.1-2-.5-4-.6-6 0-.3-.5-.3-.5 0 0 2 .1 4.1.6 6 .1.3.5.3.5 0zm2.6 1.2c.1-1.1-.2-2.2-.2-3.4 0-1.1 0-2.2.2-3.4.1-.3-.6-.4-.6-.1-.4 2.1-.8 4.9.1 6.9 0 .5.4.3.5 0zm2.1-13c0 3.1-.1 6.3.2 9.4 0 .3.5.3.5 0 .4-3.1.2-6.3-.1-9.4-.1-.4-.6-.4-.6 0zm2 7.9c.1 2.6.2 5.2.8 7.8.1.3.6.3.6-.1 0-2.6-.4-5.1-.6-7.7-.1-.5-.8-.5-.8 0zm-.8 10.1c.1.4.7.3.7-.1-.1-2.5-.6-4.9-.7-7.4 0-.3-.5-.3-.6 0-.1 2.4-.2 5.1.6 7.5zm-.2 1.6c.1 2.1.2 4.1.7 6.1.1.2.4.2.5-.1.1-2.1-.2-4.1-.6-6.2-.1-.2-.6-.1-.6.2zm5.4-2.1c-.2 1.9-.5 3.8-.1 5.7.1.3.5.3.6 0 .3-1.9.2-3.8.4-5.7 0-.5-.9-.5-.9 0zm2.9.5c-.1 2-.4 4.1-.5 6.1 0 .3.4.3.5.1.7-2 .8-4.1.8-6.1 0-.5-.7-.5-.8-.1zm-2.6-2.9c0-1.7-.3-3.3-.4-5 0-.2-.4-.2-.4 0-.1 1.6-.2 3.5.3 5.1.2.2.5.1.5-.1zm1.2-7c0 2.2-.3 4.5.1 6.7.1.3.6.3.7 0 .3-2.2.1-4.5.1-6.7-.1-.4-.9-.4-.9 0zm4.6 4.4c.3-2.1.1-4.3 0-6.5 0-.7-1.1-.7-1.1 0 .1 2.2-.1 4.4.3 6.6.1.5.7.3.8-.1zm1.9.1c.3-2.7.3-5.4.4-8.2 0-.5-.7-.5-.8 0-.1 2.7-.3 5.4-.2 8.2 0 .4.5.4.6 0zm-2.1 1.8c-.2 2.1-.5 4.2-.3 6.3 0 .2.4.4.5.1.4-2.1.3-4.3.3-6.4.1-.4-.5-.4-.5 0zm2.1 1.3c-.2 1.7-.6 3.6-.5 5.4 0 .4.6.5.7.1.6-1.7.6-3.7.8-5.5 0-.6-.9-.6-1 0zm2.5-3.7c0 2.1-.3 4.2-.4 6.3 0 .3.4.3.5.1.6-2 .6-4.3.4-6.4 0-.3-.5-.3-.5 0zm3.1.5c-.4 2.1-.9 4.4-.7 6.6 0 .4.6.5.7.1.5-2.1.6-4.3.9-6.4 0-.6-.8-.8-.9-.3zm2.2-3.5c-.5 1.9-.5 4-.7 5.9 0 .4.5.3.6 0 .3-1.9.7-3.9.7-5.9 0-.2-.5-.3-.6 0zm1.5-2.8c.5 2.4.1 4.6 0 7 0 .2.3.3.4.1 1-2.2.7-5 .3-7.3-.1-.4-.8-.3-.7.2zm2.8-2.6c-.3 1.8-.9 4-.6 5.8.1.3.6.3.6 0 .5-1.8.4-3.8.8-5.6.1-.5-.7-.7-.8-.2zm2.3-2.9c0 1.7-.4 3.2-.6 4.9 0 .3.4.4.5.1.7-1.5.9-3.4.9-5 0-.5-.8-.5-.8 0zm-12.1 3.3c0 2.1-.2 4.4.2 6.5.1.4.6.2.6-.1.3-2.1 0-4.3-.1-6.5 0-.3-.7-.3-.7.1zm2.9 0c-.3 1.9-.5 4.1.1 6 .1.3.6.2.6-.1.1-1.9-.1-3.8.2-5.7 0-.5-.8-.7-.9-.2zm3.2-2.3c-.1 1.3-.3 2.6-.3 3.9 0 .3.4.4.5.1.3-1.3.4-2.7.5-4 .1-.5-.7-.5-.7 0zm-3.2 1c.1-.6-.1-1.1-.1-1.7 0-.4-.7-.4-.6 0 .1.6 0 1.2.2 1.8 0 .2.4.1.5-.1zm4.7-13.3c0 3.5 0 7.1.5 10.6 0 .2.4.3.4 0 .2-3.5-.1-7.1-.4-10.6 0-.3-.5-.4-.5 0zm2.1 3c-.3 3.2-.7 6.6-.3 9.9.1.4.6.4.6 0 .2-3.3.1-6.6.3-9.9 0-.4-.6-.4-.6 0zm2 8.2c.6-2.2.4-4.8.5-7.1 0-.5-.8-.5-.8 0-.1 2.3-.5 4.8-.1 7.1 0 .2.3.2.4 0zm-2.7-13.5c.2 1.4.3 2.9.8 4.2.1.2.5.2.5-.1-.1-1.4-.4-2.9-.7-4.3-.1-.2-.7-.1-.6.2zm3.7 5.9c.2-2.1-.3-4.3-.4-6.4 0-.4-.7-.4-.7 0 .1 2.2.1 4.4.5 6.5.1.4.6.3.6-.1zm2.4-2.8c.3-2.7.1-5.3-.3-8-.1-.4-.7-.2-.6.2.4 2.6.5 5.2.6 7.8 0 .3.3.3.3 0zm-1 4c.7 3.4.3 6.8.8 10.1 0 .2.5.2.5 0 .6-3.4.1-7-.8-10.3 0-.3-.6-.2-.5.2zm3.3-2.4c-.2 3.3-.5 6.8-.1 10.1.1.4.6.4.6 0 .4-3.3.2-6.8.4-10.1.1-.6-.8-.6-.9 0zm2.7-.7c-.2 3.3-1 7.1-.4 10.3.1.3.5.2.6 0 .9-3.1.6-7.1.8-10.3 0-.6-1-.6-1 0zm2.1-1.5c-.1 3.3-.7 6.9-.3 10.2 0 .3.5.4.6.1.7-3.3.5-6.9.6-10.3.1-.6-.9-.6-.9 0zm3.4-.3c-.2 2.2-.5 4.5-.4 6.7 0 .4.6.5.7.1.5-2.2.5-4.6.7-6.8 0-.6-.9-.6-1 0zm-1.9 5.9c-.2 1.7-.6 3.4-.6 5.1 0 .4.5.4.6.1.6-1.6.6-3.5.8-5.2 0-.4-.7-.4-.8 0zm3.9-6c.3 1.6.1 3.3.3 4.9 0 .3.5.4.6.1.4-1.6.1-3.5-.2-5.2 0-.4-.8-.2-.7.2zm-9.7-.9c.1-2-.4-4.1-.7-6.1-.1-.3-.7-.3-.6.1.2 2 .2 4.1.7 6.1.1.3.6.2.6-.1zm2.2.1c.1.4.6.2.6-.1.2-1.8-.2-3.8-.4-5.6 0-.4-.6-.4-.6 0 .1 1.8-.1 3.9.4 5.7zm2.7-.2c1-2 .7-4.7.3-6.8-.1-.5-.9-.3-.8.2.2 1.1.2 2.3.2 3.4-.1 1-.3 2-.2 3.1-.1.2.3.4.5.1zm-2.4-15.1c.3 2.1.3 4.2.7 6.3.1.3.5.2.5-.1.2-2.2-.2-4.3-.6-6.4 0-.3-.6-.1-.6.2zm-4.8 19c0 .8 0 1.6.1 2.4 0 .1.3.1.3 0 .1-.8.1-1.6.1-2.4 0-.3-.5-.3-.5 0zm9.6-21.1c.1-1.7-.5-3.5-.8-5.2-.1-.4-.8-.3-.7.1.2 1.7.3 3.6.9 5.2.1.3.6.3.6-.1zm3.6-8.3c-.1-1.9-.8-3.7-1.4-5.5-.1-.4-.7-.2-.6.2.4 1.8.8 3.6 1.5 5.4.1.2.5.2.5-.1zm1.1-3.2c-.2-1.6-.9-3.1-1.4-4.6-.1-.3-.5-.2-.5.1.3 1.5.7 3.2 1.4 4.6.1.3.5.2.5-.1zm5.1 13.2c-.5-3.7-1.7-7.3-2.8-10.9-.1-.4-.7-.2-.6.2.8 3.6 1.4 7.4 2.7 10.8.1.3.7.3.7-.1zm-2.4 2.3c.1.3.5.2.5-.1.2-3.1-.9-6.5-1.7-9.5-.1-.5-.9-.3-.8.2.7 3.1 1 6.4 2 9.4zm-1.4 2.2c.2-3.4-.8-7-1.5-10.3-.1-.3-.7-.3-.6.1.4 3.3.5 7.1 1.6 10.3.1.3.5.2.5-.1zm-3.2-5.8c.3 2.8.1 6.1.9 8.8.1.2.5.3.5 0 .6-2.8-.3-6.2-.8-8.9.1-.4-.6-.3-.6.1zm-1.8 1.1c.3 3.5 0 7.3.8 10.7.1.4.6.3.7-.1.4-3.4-.4-7.3-1-10.7.1-.3-.5-.3-.5.1zm-.7 13.1c.5-3.6-.1-7.2-.7-10.8-.1-.3-.6-.2-.6.1.4 3.5.2 7.1.6 10.6.1.4.7.5.7.1zm2.3 2.4c.2-.9-.2-1.8-.4-2.7-.1-.4-.7-.2-.7.2.1.9.2 1.8.7 2.6.1.1.4.1.4-.1zm1.8-1.2c.1-1.6-.4-3.3-.7-4.8-.1-.3-.6-.3-.6.1.2 1.6.2 3.3.8 4.8.1.2.5.2.5-.1zm.4-5.7c.4 2.3.6 4.7 1.4 6.9.1.3.6.3.6-.1-.1-2.4-.8-4.7-1.3-7.1 0-.4-.7-.2-.7.3zm-3.3-13c.1.4.2.9.6 1.2.1.1.4.1.4-.1.1-.5-.1-.9-.3-1.3l-.6-1.5c-.2-.4-.9-.2-.7.2l.6 1.5zm2.3-6.6c0 1.3-.1 2.9.5 4.1.2.4.8.2.8-.2.1-.7-.1-1.3-.2-1.9-.1-.7-.1-1.3-.1-2 0-.6-1-.6-1 0z" fill="#000000" stroke-width="none" opacity="1"></path></g></g></g><g id="svga-group-mustache-single-move" transform="matrix(1,0,0,1,0,0)"><g id="svga-group-mustache-single"></g></g><g id="svga-group-nose-single-move" transform="matrix(1,0,0,1,0,0)"><g id="svga-group-nose-single"><path id="SvgjsPath7029" d="M95.01 99.89c-2.09.78-5.37.13-6.47 2.2s-.19 7.05 5.95 4.98c0 0 1.29 1.62 4.27 1.75 2.98.13 4.34-2.26 4.34-2.26s2.2 1.68 4.79.52 2.14-4.14.39-5.57-5.57-.84-5.57-.84-1.62-3.04-7.7-.78z" fill="#f8f7f3" stroke-width="none" opacity="1"></path><path id="SvgjsPath7030" d="M108.96 101.19c-.72-.65-1.79.42-1.06 1.06 3.13 2.81-1.58 6.07-4.33 3.73-.39-.34-.88-.26-1.18.15-1.68 2.32-4.9 2.32-6.82.43a.77.77 0 0 0-.11-.27c-.78-1.24-.82-2.71-.08-3.98.49-.84-.81-1.6-1.3-.76-.88 1.5-.97 3.28-.28 4.83-1.11.59-2.45.71-3.61.12-1.81-.91-1.85-3.08-.51-4.39.69-.68-.37-1.74-1.06-1.06-1.69 1.65-1.96 4.36-.16 6.07 1.61 1.53 4.21 1.61 6.1.57 2.41 2.43 6.3 2.27 8.6-.17 1.8 1.11 4.27 1.18 5.95-.27 1.9-1.65 1.62-4.46-.15-6.06z" fill="#000000" stroke-width="none" opacity="1"></path></g></g><g id="svga-group-hair-front"><path id="SvgjsPath7053" d="M126.1 44.8s-4.2 10.9-22.1 17.7c0 0-1.2-.2 2.3-4 3.5-3.7-9.5 5.6-13.2 6.3-3.7.7 7.4-9.3 7.4-9.3S82.8 67.3 81 66.4c-1.9-.9 7.4-8.4 7.4-8.4S74 68.2 71.9 68.7 80 57.5 80 57.5s-11.2 7.9-13.9 15.8c-2.8 7.9-4.4 7-4.4 3.5s1.9-10 1.9-10-4.2 5.1-3.5 15.6.9 16.3-.7 13.7c-1.6-2.6-4-17.4-4-17.4s1.2 11.9-.7 10.9c-1.9-.9-6-18.6-6-24.4s1.4-15.3 4-19.8c0 0-3.3 6.5-5.6 9.3s2.6-12.3 6.7-17.2 12.6-10.2 12.6-10.2-11.2 5.3-8.8 2.6c2.3-2.8 20.9-18.1 50.4-10.7 0 0-6-3.5-9.3-5.6s10.7.2 14.9 2.8c4.2 2.6 8.1 8.4 8.1 8.4s13.9.7 19.5 3.5-7 .2-11.4.9c0 0 11.2 5.6 15.8 9.5s7.7 10.9 5.6 10.2-6.3-5.8-6.3-5.8 4 7.9 5.6 16.5 2.3 15.8.9 19.8-3.5-12.8-3.5-12.8.5 11.4-1.9 19.5c-2.3 8.1-5.3 11.9-5.8 8.6s2.1-9.5 2.1-14.9S140 68 140 68s.7 8.8-1.2 6.3c-1.9-2.6-4-8.4-6.3-13-2.2-4.7-5.7-4.9-6.4-16.5z" fill="#f8f7f3" stroke-width="none" opacity="1"></path><path id="SvgjsPath7054" d="M151.5 59.4c-.8-4.3-2.2-8.4-3.4-11.4 1 .9 2 1.6 2.8 1.9.9.3 1.5-.1 1.8-.6 1.1-2-2.8-8.3-6.4-11.3-3.1-2.6-8.8-5.9-12.5-7.8 1.1.1 2.4.2 3.5.2 4.5.4 6 .5 6.3-.8.3-1.1-1-1.8-1.9-2.2-5.2-2.6-16.9-3.4-19.4-3.6-1-1.4-4.4-6-8.2-8.3-2.7-1.6-15.4-5.1-16.7-3.1-.2.2-.6 1.1.8 2 1.1.7 2.6 1.7 4.1 2.5C73.2 12.2 57 29 56.8 29.2c-.8.9-.6 1.6-.3 2 .3.3.6.7 2.5.3-2.1 1.7-4.3 3.6-5.9 5.4-3.4 4-8.2 16.4-7.5 18.4.1.4.5.7.9.8.7.1 1.2-.5 1.4-.7.3-.4.6-.8 1-1.3-.8 4-1.1 8.2-1.1 11.1 0 5.1 4 24 6.6 25.3.5.2 1 .2 1.4-.1.3-.2.5-.5.7-1.1.7 3.2 1.5 6.2 2.2 7.3.5.7.9 1.1 1.5 1.1.1 0 .3 0 .4-.1 1.3-.4 1.6-1.9.7-15.3-.3-1.1-.3-2.2-.3-3.2.3.8.7 1.2 1.4 1.3 1.1.2 2.5-.5 4.7-6.7.8-2.3 2.5-4.7 4.3-6.9-1 1.6-.8 2-.6 2.3.2.3.7.7 1.3.5 1-.2 4.4-2.3 7.9-4.7-.2.4-.3.8-.3 1.1.1.5.3.9.8 1.1 1.2.6 5.3-1.3 12.4-5.7-2 2.4-1.7 3.1-1.5 3.5.2.3.6.9 1.8.7 2-.4 5.9-2.7 9.4-4.8.2-.1.5-.3.7-.4-.6 1-.6 1.6-.5 2 .2.5.6.8.9.9h.5c12.5-4.7 18.5-11.4 21-15.3.8 6.1 2.5 8.4 4.3 10.5.7 1 1.4 1.8 2.1 3.1.9 1.8 1.7 3.7 2.5 5.6 1.3 3.1 2.6 5.9 3.8 7.6.7 1 1.5.9 1.8.8.2-.1.6-.2.9-1 .3 1.7.6 3.5.6 5.2 0 2.6-.6 5.5-1.2 8-.6 2.8-1.1 5.2-.9 7 .2 1.7 1.1 2 1.6 2 2.9.2 5.4-8 6.1-10.5.8-3 1.3-6.3 1.6-9.4.9 3.9 1.7 4 2.2 4 .4 0 1.1-.1 1.5-1.3 1.6-3.6 1.3-10-.6-20.2zm-.6 18.2c-.6-2.4-1.4-7-1.9-11.1-.1-.5-.5-.9-1.1-.9-.5 0-.9.5-.9 1 0 .1.4 11.3-1.8 19.2-1.4 5-3 7.9-3.9 8.8-.2-1.4.3-3.8.9-6.3.6-2.6 1.2-5.6 1.2-8.4 0-5.5-2.3-11.9-2.4-12.2-.1-.4-.5-.7-.9-.7h-.2c-.5.1-.8.6-.8 1.1.1 1.6.2 3.5.1 4.7-.9-1.6-2-3.9-3-6.4-.8-1.9-1.7-3.8-2.6-5.6-.7-1.4-1.5-2.4-2.3-3.4-1.9-2.4-3.7-4.7-4.1-12.7 0-.5-.4-.9-.8-.9-.5-.1-.9.2-1.1.6 0 .1-3.9 9.7-19.4 16.3.3-.4.7-.9 1.3-1.5.5-.5 1.3-1.4.6-2.2-.7-.9-1.4-.5-6 2.2-2.5 1.5-5.7 3.4-7.7 4.2 1.4-1.7 4.4-4.7 7.2-7.2.4-.4.4-.9.1-1.4-.3-.4-.9-.5-1.3-.2-7 4.7-14.8 9.4-17.7 10.6 1.1-1.5 4.1-4.2 6.8-6.4.4-.3.5-1 .2-1.4s-.9-.5-1.4-.2c-5.1 3.6-10.8 7.5-13.9 9.3 1.6-2.1 4.3-5.5 6.9-8.3.3-.4.3-1 0-1.3-.3-.4-.9-.4-1.3-.1-.7.3-11.7 8.1-14.5 16.2-1.1 3.2-1.9 4.6-2.4 5.1-.1-.3-.1-.7-.1-1.3 0-3.3 1.8-9.7 1.8-9.7.1-.5-.1-.9-.5-1.2-.4-.2-.9-.1-1.2.3-.2.2-4.4 5.5-3.7 16.3.2 3.3.6 8.7.5 11.6-1.1-3.3-2.4-10.7-3.2-15.5-.1-.5-.6-.9-1.1-.8s-.9.6-.9 1.1c.3 3.3.5 7.2.3 9.1-1.7-3.8-5-17.4-5-22.6 0-5.6 1.2-13.7 3.3-18.2.3-.6.5-1.1.6-1.1.2-.5.1-1.1-.4-1.3-.5-.3-1.1-.1-1.3.4l-.6 1.2c-.6 1.2-1.7 3.3-2.9 5.1 1.3-4 3.9-10.3 6.3-13 4-4.7 12.2-10 12.3-10 .4-.3.6-.9.3-1.3-.3-.5-.8-.6-1.3-.4-2.1 1-4.5 2-6.2 2.7 5.6-4.9 23.1-15.2 48-8.9.5.1 1-.1 1.2-.6s0-1-.4-1.2c-.1 0-4.2-2.4-7.4-4.4 3.4.4 9.5 1.8 12 3.3 3.9 2.4 7.8 8 7.8 8.1.2.3.5.4.8.4.1 0 11.5.6 17.6 2.7-.6 0-1.2-.1-1.8-.1-2.8-.2-5.9-.5-7.8-.2-.4.1-.8.4-.8.8s.2.9.5 1c.1.1 11.1 5.6 15.6 9.4 3.1 2.6 5.1 6.3 5.7 8.1-1.5-1-3.7-3.5-5-5-.3-.4-.9-.5-1.3-.2s-.6.8-.4 1.3c0 .1 3.9 7.9 5.5 16.2 1.5 8 1.9 13.8 1.3 17.4zm-30.7-37.4c-3.5 4.5-7.9 8-13.1 10.4-.7.3-.1 1.4.6 1.1 5.3-2.4 9.8-6 13.4-10.6.5-.7-.4-1.6-.9-.9zm-5.8-2.3c-4.5 4.5-9.7 7.9-15.5 10.3-.7.3-.4 1.5.3 1.2 6.1-2.5 11.4-6 16.1-10.6.5-.6-.3-1.5-.9-.9zm-14.6 3.2c-6.2 4.2-12.7 8-19.4 11.3-.7.4-.1 1.4.6 1.1 6.8-3.3 13.2-7 19.4-11.3.7-.5.1-1.6-.6-1.1zm-20.6 7.6c-6.1 4-11.3 9-15.5 15-.5.7.6 1.3 1.1.6 4-5.8 9.1-10.7 15-14.5.7-.5.1-1.6-.6-1.1zM64 55.2c-2.5 4-4.6 8.1-6.4 12.5-.3.7.9 1.1 1.2.3 1.7-4.3 3.8-8.3 6.2-12.2.5-.7-.6-1.3-1-.6zm-9.1 7c-1 4.5-1.3 9.1-.9 13.7.1.8 1.3.8 1.3 0-.4-4.5-.1-9 .9-13.4.1-.7-1.1-1-1.3-.3zm50.6-24.7c-.7.4-.1 1.5.6 1.1 3.6-2.1 6.6-5 8.8-8.4.4-.7-.6-1.3-1.1-.6-2.1 3.2-4.9 5.8-8.3 7.9zM86 44.4c6.1-2.8 11.4-6.6 16-11.5.6-.6-.3-1.5-.9-.9-4.5 4.8-9.8 8.6-15.8 11.3-.6.3 0 1.4.7 1.1zm-5.6-6.3c-5.1 3.2-9.9 6.7-14.5 10.7-.6.5.3 1.4.9.9 4.5-3.9 9.2-7.3 14.2-10.5.7-.4.1-1.5-.6-1.1zm-11.2-3c.7-.4.1-1.5-.6-1.1-6.7 4.2-11.4 10.4-13.7 18-.2.8 1 1.1 1.2.3 2.1-7.2 6.7-13.2 13.1-17.2zm3.6-6.5c4-2.6 8.4-4.4 13.1-5.4.8-.2.5-1.4-.3-1.2-4.8 1-9.3 2.9-13.4 5.5-.7.4-.1 1.5.6 1.1zm10.7 2.6c3-1.7 6.3-2.8 9.7-3.3.8-.1.5-1.3-.3-1.2-3.6.5-6.9 1.7-10 3.5-.7.3-.1 1.4.6 1zm16.9-6.7c3.7.1 7.2.8 10.6 2 .8.3 1.1-.9.3-1.2-3.6-1.3-7.2-1.9-11-2.1-.7 0-.7 1.3.1 1.3zm24.8 7.6c-.5 2.8-1.3 5.5-2.4 8.1-.3.7.9 1.1 1.2.3 1.1-2.6 1.9-5.3 2.4-8.1.1-.8-1.1-1.1-1.2-.3zm4.3 4.6c.1-.8-1.2-.8-1.3 0-.3 3.7.1 7.2 1.1 10.8.2.8 1.4.4 1.2-.3-1-3.5-1.3-7-1-10.5zm4.4 17.2c-.3-.7-1.5-.4-1.2.3 1 2.5 2.4 4.9 4.1 7 .5.6 1.4-.3.9-.9-1.6-1.9-2.9-4-3.8-6.4zm2.1-4.6c-1.9-2.6-3-5.5-3.5-8.7-.1-.8-1.3-.5-1.2.3.5 3.3 1.7 6.3 3.6 9 .5.7 1.6.1 1.1-.6zm3.5 5.1c-.4-.7-1.5-.1-1.1.6 1.6 2.5 2.9 5 4.1 7.7.3.7 1.4.1 1.1-.6-1.2-2.7-2.6-5.3-4.1-7.7zm4.4 13.6c.1 2.1.3 4.1.4 6.2 0 .8 1.3.8 1.3 0-.1-2.1-.3-4.1-.4-6.2-.1-.8-1.3-.8-1.3 0zm-2.1-21.4c-1-1.7-1.9-3.5-2.9-5.2-.4-.7-1.5-.1-1.1.6 1 1.7 1.9 3.5 2.9 5.2.4.7 1.5.1 1.1-.6zm2.4 9.7c1.1 2.4 1.8 4.8 2.3 7.4.1.8 1.3.5 1.2-.3-.4-2.7-1.2-5.2-2.4-7.7-.4-.7-1.5-.1-1.1.6z" fill="#000000" stroke-width="none" opacity="1"></path></g><g id="svga-group-glasses-single-move" transform="matrix(1,0,0,1,0,0)"><g id="svga-group-glasses-single"><path id="SvgjsPath7281" d="M94 84.7c-1.1-5-4.7-12-15.5-12.3s-15.6 7.8-16.5 15c-.8 7.2 4.9 13.9 8.8 15.6 3.8 1.7 11.7 3.3 17.7-2.1s6.6-11.3 5.5-16.2z" fill="#000000" stroke-width="none" opacity="1"></path><path id="SvgjsPath7282" d="M105.4 84.7c1.1-5 4.7-12 15.5-12.3s15.6 7.8 16.5 15-4.9 13.9-8.8 15.6-11.7 3.3-17.7-2.1c-6.1-5.5-6.6-11.3-5.5-16.2z" fill="#000000" stroke-width="none" opacity="1"></path><path id="SvgjsPath7283" d="m65.6 88.7 13.6-11.3.2.2-13.6 11.3-.2-.2zm7.8 12L87 89.4l.2.2-13.6 11.3-.2-.2zm-1.3-5 18.5-15.4.2.2-18.5 15.4-.2-.2zm-5.4-1.4 18.2-15.1.2.2-18.2 15.1-.2-.2z" fill="#f8f7f3" stroke-width="none" opacity="1"></path><path id="SvgjsPath7284" d="m108 88.7 13.6-11.3.2.2-13.6 11.3-.2-.2zm7.7 12 13.6-11.3.2.2-13.6 11.3-.2-.2zm-1.2-5L133 80.3l.2.2-18.5 15.4-.2-.2zm-5.4-1.4 18.2-15.1.2.2-18.2 15.1-.2-.2z" fill="#f8f7f3" stroke-width="none" opacity="1"></path><path id="SvgjsPath7285" d="M140.5 86.2c-.2-.1-1.7-.1-2.6-.1-1.2-7.1-6.3-14.8-17.1-14.4-10.6.3-14.5 6.8-15.8 11.5-.5-.6-1.3-1-1.8-1.1-.6-.1-4.8-.2-6.5-.1-1.8.2-2.2 1.2-2.2 1.2l-.1.1C93 78.6 89.2 72 78.5 71.7c-10.7-.4-15.7 7.3-17 14.4-.9 0-2.4 0-2.5.1-.2.2 0 2.1 0 2.1l2.3.1c-.2 6.9 5.1 13.5 9.3 15.3 1 .4 4.2 1.7 8.1 1.7 3.3 0 7.1-.9 10.4-3.9 5.2-4.7 7.1-10.2 5.7-16.8.1-.2.2-.3.3-.5.3-.4 1.1-1.1 1.8-1.2.7-.1 4.7 0 5.3 0s1.4.4 1.8.8c.2.2.4.6.6.9-1.4 6.6.4 12.1 5.7 16.8 3.3 3 7.1 3.9 10.4 3.9 3.9 0 7.1-1.2 8.1-1.7 4.2-1.8 9.5-8.4 9.3-15.3l2.3-.1c.1 0 .3-1.9.1-2.1zm-52.4 14.1c-6.6 6-15.3 2.7-16.9 2-3.3-1.4-9.2-7.8-8.3-14.8.8-6.7 5.2-14.3 15.1-14.3h.6c10.1.3 13.6 6.5 14.8 11.7 1.2 6-.5 11-5.3 15.4zm40.2 1.9c-1.7.7-10.3 4-16.9-2-4.8-4.4-6.5-9.4-5.2-15.4 1.1-5.2 4.6-11.4 14.8-11.7h.6c9.9 0 14.3 7.7 15.1 14.3.7 7-5.1 13.4-8.4 14.8z" fill="#f8f7f3" stroke-width="none" opacity="1"></path><path id="SvgjsPath7286" d="M78.6 72.9c-10.5-.3-15.2 7.7-16 14.5-.8 7.1 5.1 13.6 8.5 15 .9.4 3.9 1.6 7.6 1.6 3 0 6.5-.8 9.6-3.6 4.9-4.4 6.6-9.6 5.3-15.7-1.2-5.1-4.8-11.5-15-11.8zm9.3 27.2c-6.5 5.9-15 2.6-16.7 1.9-3.3-1.4-9-7.7-8.2-14.5.8-6.5 5.1-14.1 14.9-14.1h.6c10 .3 13.4 6.4 14.5 11.5 1.4 5.9-.3 10.9-5.1 15.2zM140.6 86c-.1-.1-.2-.2-2.5-.2-1.3-7.2-6.5-14.8-17.3-14.4-10.3.3-14.3 6.2-15.9 11.3-.5-.5-1.2-.8-1.6-.9-.7-.1-4.8-.2-6.6-.1-1.2.1-1.8.6-2.2 1-1.6-5.1-5.7-11-15.9-11.3-10.7-.3-15.9 7.2-17.3 14.4-2.2 0-2.4.1-2.5.2-.1.1-.3.2-.1 2.3v.2H61c-.1 7.2 5.5 13.6 9.4 15.3.9.4 4.2 1.7 8.2 1.7 4.1 0 7.7-1.3 10.6-4 5.3-4.8 7.2-10.3 5.8-17 .1-.1.2-.3.2-.4.3-.4 1-1 1.7-1.1.7-.1 4.5 0 5.3 0 .6 0 1.3.4 1.7.8.1.1.3.3.5.8-1.4 6.6.5 12.2 5.8 16.9 2.9 2.6 6.5 4 10.6 4 4 0 7.3-1.3 8.2-1.7 4-1.7 9.6-8.1 9.4-15.3h2.3v-.2c.2-2 0-2.2-.1-2.3zm-.4 2-2.3.1v.2c.2 7-5.2 13.4-9.1 15.1-.9.4-4.1 1.7-8 1.7-4 0-7.4-1.3-10.2-3.8-5.2-4.7-7-10.1-5.6-16.5v-.2c-.2-.5-.5-.8-.7-1-.5-.4-1.2-.8-2-.9-.4 0-2.1-.1-3.5-.1-.9 0-1.6 0-1.9.1-.8.2-1.7.9-2 1.3-.1.2-.2.3-.3.5v.2c1.4 6.5-.4 11.9-5.6 16.6-2.8 2.6-6.3 3.8-10.2 3.8-3.9 0-7.1-1.3-8-1.7-3.9-1.7-9.4-8-9.1-15.1v-.2l-2.5-.1c-.1-.7-.1-1.4 0-1.6.2 0 .9-.1 2.4-.1h.2v-.2C63 79 68.1 71.6 78.6 71.9c10.3.3 14.2 6.4 15.6 11.4l.2.5.4-.6s.4-.9 2-1c1.8-.2 5.9-.1 6.4.1.4.1 1.2.6 1.7 1.1l.3.3.1-.4c1.5-5 5.4-11 15.6-11.4 10.5-.3 15.6 7.1 16.8 14.2v.2h.2c1.4 0 2.2 0 2.4.1 0 .3 0 1-.1 1.6zm-18.7-15.1h-.6c-10.3.3-13.8 6.7-15 11.9-1.3 6.1.4 11.2 5.3 15.7 3.1 2.8 6.5 3.6 9.6 3.6 3.7 0 6.7-1.2 7.6-1.6 3.4-1.5 9.3-7.9 8.5-15-.8-6.8-5.3-14.6-15.4-14.6zm6.7 29.1c-1.6.7-10.1 4-16.7-1.9-4.8-4.3-6.4-9.3-5.1-15.2 1.1-5.1 4.6-11.2 14.5-11.5h.6c9.8 0 14.1 7.6 14.8 14.1.8 6.8-4.9 13.1-8.1 14.5z" fill="#000000" stroke-width="none" opacity="1"></path></g></g></g></g></g><rect id="svga-credit-rect" width="200" height="15" x="0" y="185" fill="#ecf0f1" opacity="0.5" style="display: none;"></rect><text id="svga-credit-text" font-family="Avenir Next, Roboto, Helvetica, Arial, sans-serif" font-size="10px" text-anchor="start" font-weight="400" size="10px" anchor="start" weight="400" fill="#292929333" x="33.40447998046875" y="182.60824704170227" style="display: none;"><tspan id="SvgjsTspan6818" dy="13" x="33.40447998046875">Created on AvatarMaker.com</tspan></text></g><defs id="SvgjsDefs6765"></defs></svg>